<svg xmlns="http://www.w3.org/2000/svg" width="384" height="465" viewBox="0 0 384 465">
  <g fill="none">
    <path fill="#9060EB" d="M26.3994887,98.1763095 C20.6445345,90.8301456 16.9499999,84.8112648 15.3158848,80.1196672 C13.5991082,75.1907461 8.55700746,56.7797487 0.18958268,24.8866746 C-0.540399583,22.1042942 0.891505681,19.2123589 3.55900792,18.0816424 L7.12722645,16.5691249 C10.09678,15.3103731 13.5365919,16.6651108 14.8243143,19.6005508 L24.1928345,40.9566331 C24.5325268,41.7309819 25.441544,42.0863529 26.2231812,41.7503766 C26.6790543,41.5544256 27.0115845,41.1529283 27.116501,40.6717815 C27.2535965,40.0430612 26.0017762,28.9434663 23.3610401,7.37299703 C22.9820407,4.27719268 25.1359879,1.43787346 28.2432709,0.937272493 L33.5876555,0.0762617256 C36.755466,-0.434090584 39.7514051,1.67008701 40.3137022,4.80025525 L45.8781486,35.7761456 C46.0012454,36.4613943 46.5609173,36.9874024 47.2582722,37.0732556 C47.9081165,37.1532596 48.5015448,36.7002178 48.5887555,36.0575228 L51.5618313,14.1475822 C51.9637823,11.1854233 54.5679733,9.0089567 57.5840973,9.11444134 L61.7050086,9.25964992 C64.945026,9.37296487 67.4805761,12.0658474 67.3687003,15.2747769 L65.9926632,54.7731881 C66.0441365,55.7562431 66.1143074,56.6301429 66.2015635,57.2403691 C66.4016428,58.6396213 72.1000716,59.089261 72.5839754,58.9242322 C76.6174049,57.5486852 83.6235754,51.9963223 86.8420572,53.0732821 C90.0170747,54.135698 94.8119481,62.4123814 93.7686011,63.9584029 C92.7252541,65.5044243 89.5199277,69.9188313 79.3616311,77.7403502 C73.5548509,82.21136 68.4351471,86.0537977 64.0025194,89.2676633 C72.5047362,160.234796 79.3466601,202.63961 84.5282913,216.482104 C93.1247874,239.447256 157.668018,290.9883 172.043333,304.88853 C181.626877,314.155349 182.553123,322.859172 174.82207,331 C116.523038,289.82617 80.1055111,259.277113 65.569488,239.352828 C57.3078245,228.836069 51.7476147,219.469376 48.8888581,211.25275 L55.9800466,218.620177 C48.9616339,196.619535 39.1014479,156.47158 26.3994887,98.1763095 Z"/>
    <path fill="#885BDF" d="M311.419885,345 C334.49808,379.15367 371.73703,442.656255 384,463 L352.515201,463 C339.743811,439.405882 310.087281,380.014938 305.404536,370.771993 C299.359467,358.840052 301.364584,350.249388 311.419885,345 Z"/>
    <g transform="translate(152 97)">
      <path fill="#885BDF" d="M163.323302,6.70714008 C172.370028,14.026196 177.528791,26.2757573 169.461912,36.2282239 C161.395033,46.1806905 143.096135,52.1490522 133.067235,44.0353908 C123.038335,35.9217295 125.077174,16.7985234 133.144054,6.84605686 C141.210933,-3.10640975 154.276575,-0.611915809 163.323302,6.70714008 Z"/>
      <path fill="#9060EB" d="M4.03396448,37.0337193 C-4.0470282,27.0500037 1.06904287,14.8038799 10.0802516,7.50344124 C19.0914602,0.203002664 32.128244,-2.25742465 40.2092367,7.7262909 C43.197744,11.418462 45.3666867,16.3637069 46.4082608,21.5395749 C77.941522,11.1648975 137.659324,15.4283342 146.027913,34.329885 C151.974026,47.7599577 155.785897,90.739394 158.172258,133.447542 C159.154042,151.018294 159.894541,181.179241 160.44311,196.581541 C161.478145,225.64251 161.531249,367.74595 161.531249,367.74595 L13.5903407,367.200819 C13.5903407,367.200819 12.5581081,225.64251 13.5903407,196.581541 C14.1374235,181.179241 14.8762598,151.018294 15.856433,133.447542 C17.6783386,100.787753 20.3340594,67.9693145 24.1420185,48.3282114 C16.4062175,47.0421583 8.59488909,42.6685436 4.03396448,37.0337193 Z"/>
      <path fill="#6CF5AA" d="M141.443049,367.728236 C141.71047,356.57345 142.110683,298.965016 142.110683,286.239911 C142.110683,251.927335 117.460666,237.005631 87.0533292,237.005631 C56.6459931,237.005631 31.9959763,251.927332 31.9959763,286.239911 C31.9959763,298.688925 32.1242381,356.264414 32.3736708,367.203414 L141.443049,367.728236 Z"/>
      <path fill="#6CF5AA" d="M86.946607,242.914465 C92.7187985,240.080705 97.2456876,236.315244 100.527274,231.618083 C95.619605,234.039512 88.1750718,236.088746 78.1936742,237.765786 C63.2215777,240.281344 66.3222158,252.447642 86.946607,242.914465 Z" transform="scale(-1 1) rotate(4 0 -2186.127)"/>
      <path fill="#000" fill-opacity=".05" d="M101.648127,34.422185 C96.3931345,46.2629863 91.9974807,86.0755423 89.4110575,131.708533 C86.8246339,177.341525 85.8475923,367.540929 85.8475923,367.540929 L146.413967,367.540929 C146.350631,367.540929 117.144621,263.839324 130.104391,224.227545 C138.75784,197.778116 148.858239,197.048211 159.781063,188.098224 C170.703886,179.148238 126.793886,194.767121 130.104391,147.355653 C123.342618,118.753274 141.70124,98.6531251 146.413967,88.0726846 C154.160467,70.6811864 132.913546,63.307566 132.913546,51.4211604 C132.913546,37.7519103 127.864495,19.9514809 159.781063,16.0138506 C117.754776,17.6130064 105.149507,26.5327079 101.648127,34.422185 Z" transform="matrix(-1 0 0 1 247.379 0)"/>
      <path fill="#885BDF" d="M161.591493,239.558826 C161.591784,229.436749 163.024821,219.360484 165.890605,209.330031 C158.304029,214.27239 154.510604,221.551242 154.510328,231.166584 C154.509914,245.589598 161.591057,254.741941 161.591493,239.558826 Z" transform="rotate(1 160.2 228.358)"/>
      <path fill="#7A52C7" d="M119.685853,82.776566 C129.548366,82.768462 135.19539,95.0184096 135.202139,86.8047607 C135.208888,78.5911119 128.579985,71.9380848 120.396069,71.9448095 C112.212154,71.9515342 105.572308,78.6154641 105.565559,86.8291129 C105.55881,95.0427617 109.82334,82.7846699 119.685853,82.776566 Z" transform="scale(-1 1) rotate(45 0 -209.829)"/>
      <path fill="#976AEB" d="M54.3846091,94.2230425 C64.2471222,94.2149385 69.8941458,106.464886 69.9008949,98.2512368 C69.907644,90.0375879 63.2787408,83.3845614 55.0948249,83.391286 C46.9109094,83.3980107 40.2710637,90.0619401 40.2643146,98.2755889 C40.2575655,106.489238 44.5220958,94.2311465 54.3846091,94.2230425 Z" transform="scale(1 -1) rotate(45 277.794 0)"/>
      <path fill="#333" d="M87.5273975,113.257837 C84.185372,113.257837 75.8303073,108.447122 75.8303073,103.005212 C75.8303073,97.5633004 81.9901481,96.835419 87.5273975,96.835419 C93.0646475,96.835419 99.2244882,97.5633004 99.2244882,103.005212 C99.2244882,108.447122 90.8694236,113.257837 87.5273975,113.257837 Z M49.0941005,96.835419 C43.5568508,96.835419 39.068023,92.4238787 39.068023,86.9819681 C39.068023,81.5400569 43.5568508,77.1285166 49.0941005,77.1285166 C54.6313503,77.1285166 59.120178,81.5400569 59.120178,86.9819681 C59.120178,92.4238787 54.6313503,96.835419 49.0941005,96.835419 Z M125.960695,96.835419 C120.423445,96.835419 115.934618,92.4238787 115.934618,86.9819681 C115.934618,81.5400569 120.423445,77.1285166 125.960695,77.1285166 C131.497945,77.1285166 135.986772,81.5400569 135.986772,86.9819681 C135.986772,92.4238787 131.497945,96.835419 125.960695,96.835419 Z"/>
      <path fill="#FFF" fill-opacity=".3" d="M83.7717285,103.472813 C81.4854599,103.472813 79.6320725,102.72099 79.6320725,101.79357 C79.6320725,100.866149 81.4854599,100.114326 83.7717285,100.114326 C86.0579977,100.114326 87.911385,100.866149 87.911385,101.79357 C87.911385,102.72099 86.0579977,103.472813 83.7717285,103.472813 Z M43.5404541,84.161513 C43.5404541,82.7910323 44.6692422,81.6800376 46.0616729,81.6800376 C47.4541037,81.6800376 48.5828918,82.7910323 48.5828918,84.161513 C48.5828918,85.5319937 47.4541037,86.6429883 46.0616729,86.6429883 C44.6692422,86.6429883 43.5404541,85.5319937 43.5404541,84.161513 Z M119.71013,84.161513 C119.71013,82.7910323 120.838919,81.6800376 122.231349,81.6800376 C123.62378,81.6800376 124.752568,82.7910323 124.752568,84.161513 C124.752568,85.5319937 123.62378,86.6429883 122.231349,86.6429883 C120.838919,86.6429883 119.71013,85.5319937 119.71013,84.161513 Z"/>
      <path fill="#6D49B2" d="M33.7348676,56.887412 L31.8264214,56.4619181 L37.5074806,55.1070199 C40.5113671,54.2556789 45.2076277,52.98722 50.4381936,51.805145 C52.0407243,51.4429832 53.5976879,51.1203966 55.0741398,50.8348119 L54.1636857,49.8750012 L60.0656039,49.8750012 L57.6007603,48.2968103 C62.5716244,48.2968103 65.4319542,48.2968103 66.1817496,48.2968103 C67.0007725,48.2968103 67.304861,48.6950446 67.3947097,49.2309681 C67.4274337,49.2982673 67.4439654,49.376542 67.4396466,49.4617872 L67.4261041,49.7290793 C67.4253227,49.7773596 67.4237062,49.8260468 67.4214158,49.8750012 C67.4206541,49.8912909 67.4189232,49.9076585 67.4162235,49.9241041 L66.8305148,61.4846958 C66.8157826,61.7754736 66.5657573,62.0141567 66.2722227,62.0147406 C66.2722227,62.0147406 60.1962554,62.0037441 51.5516975,62.3895369 C42.9071398,62.7753298 35.8515509,63.1249089 35.8515509,63.1249089 C35.5574469,63.1393598 35.2621234,62.9192334 35.1897241,62.6332958 L33.7348676,56.887412 Z M131.086894,62.8075148 L133.101299,64.096739 C128.552386,63.3396968 124.848916,62.7582513 121.99089,62.3524021 C121.502506,62.328516 121.008169,62.3044341 120.508849,62.280214 C111.46137,61.8413555 105.078972,61.8091901 105.078972,61.8091901 C104.785771,61.8066982 104.53378,61.5711164 104.515332,61.2699053 L103.808385,49.7266363 C103.703603,48.9623133 103.464519,47.6531316 103.091133,45.7990911 L110.90834,49.9319789 C110.92303,49.9342566 110.937738,49.9365389 110.952466,49.938826 L110.213462,48.3895749 L116.064895,50.7759395 C116.065392,50.7856383 116.065891,50.7953311 116.066392,50.8050176 C117.811655,51.1256277 119.674461,51.4941416 121.599406,51.9139442 C130.990423,53.9619881 138.762252,56.2533641 138.762252,56.2533641 C139.044259,56.3351801 139.211724,56.6334797 139.136431,56.9191211 L137.632952,62.6229895 C137.557599,62.9088606 137.257964,63.1279846 136.96783,63.112685 C136.96783,63.112685 134.676607,62.9910015 131.086894,62.8075148 Z M79.8342419,167.522725 C78.900699,167.522725 78.1439128,166.769028 78.1439128,165.839296 C78.1439128,164.909564 78.900699,164.155867 79.8342419,164.155867 L94.8521472,164.155867 C95.7856902,164.155867 96.5424764,164.909564 96.5424764,165.839296 C96.5424764,166.769028 95.7856902,167.522725 94.8521472,167.522725 L79.8342419,167.522725 Z"/>
      <path fill="#8F2E2E" d="M86.4456522,154.74323 C117.521754,154.74323 142.713913,144.234387 142.713913,131.036061 C142.713913,117.837735 117.521754,127.043643 86.4456522,127.043643 C55.3695501,127.043643 30.1773913,117.837735 30.1773913,131.036061 C30.1773913,144.234387 55.3695501,154.74323 86.4456522,154.74323 Z"/>
      <path fill="#FFF" d="M46.5234783,123.920392 C49.7675478,123.920392 55.4446696,124.671615 55.4446696,124.671615 C54.6336522,127.300897 53.0116174,132.288652 50.9840739,132.288652 C48.9565304,132.288652 47.3344957,126.925286 46.5234783,123.920392 Z M127.625217,123.920392 C126.8142,126.925286 125.192165,132.726917 123.164622,132.726917 C121.137078,132.726917 119.515043,127.300897 118.704026,124.671615 C118.704026,124.671615 124.381148,123.920392 127.625217,123.920392 Z"/>
      <path fill="#7F2828" d="M88.3317153,130.210767 C107.94959,130.210767 123.853043,134.158235 123.853043,141.459569 C123.853043,151.463318 107.94959,153.485155 88.3317153,153.485155 C68.7138407,153.485155 52.8104348,153.302422 52.8104348,141.459569 C52.8104348,134.158237 68.7138407,130.210767 88.3317153,130.210767 Z"/>
      <path fill="#8F2E2E" d="M69.7852174,131.45548 C76.6140716,130.639872 84.8971787,131.856688 86.0640278,135.490449 C87.2308769,139.12421 84.5077791,140.237658 84.5342127,142.717205 C84.5606468,145.196751 86.2126316,146.565742 88.009807,146.565742 C89.7508517,146.565742 91.4028365,145.196751 91.4292706,142.717205 C91.4557047,140.237658 88.7326063,139.12421 89.8994554,135.490449 C91.0663045,131.856688 101.205588,130.604303 106.878261,131.45548 L103.359917,128.952692 L72.5232362,128.952692 L69.7852174,131.45548 Z"/>
      <path fill="#AE3939" d="M108.764343,152.618213 C108.768341,152.148221 106.201028,150.195829 98.1912488,148.711754 C92.5767952,147.671491 89.8618927,150.102009 88.6947332,150.102009 C87.5275733,150.102009 84.5822324,147.671491 78.9677787,148.711754 C70.9579997,150.195829 67.8991304,152.644773 67.8991304,152.618213 C83.4902071,154.104597 92.2202026,155.064202 108.764343,152.618213 Z"/>
      <path fill="#000" fill-opacity=".05" d="M126.996522,123.920392 C126.472167,126.126489 125.423456,130.385862 124.112568,130.385862 C122.80168,130.385862 121.75297,126.402251 121.228615,124.471916 C121.228615,124.471916 124.899101,123.920392 126.996522,123.920392 Z M52.5761647,124.332664 C54.6379646,124.494398 55.4601185,124.705355 55.4601185,124.705355 C54.935763,126.63569 53.0351963,132.097879 52.3664026,132.097879 C51.6976088,132.097879 53.1005197,126.538761 52.5761647,124.332664 Z"/>
    </g>
  </g>
</svg>
